<svg xmlns="http://www.w3.org/2000/svg" width="36" height="36" viewBox="0 0 36 36">
    <path fill="#FFF" fill-rule="evenodd" d="M30.667 23.333h-1.334V22A.666.666 0 1 0 28 22v1.333h-1.333a.666.666 0 1 0 0 1.334H28V26a.666.666 0 1 0 1.333 0v-1.333h1.334a.666.666 0 1 0 0-1.334m-2 4.667c-2.206 0-4-1.785-4-3.98 0-1.116.476-2.188 1.306-2.941a4.003 4.003 0 0 1 2.694-1.037c2.206 0 4 1.785 4 3.979S30.873 28 28.667 28m0-9.291a5.325 5.325 0 0 0-5.071 3.673c-.857-.25-1.81-.382-2.854-.382h-5.483c-2.816 0-4.602.9-5.738 2.038C9.46 24.019 9.4 24 9.333 24h-5.93c.203-1.14 1.012-3.333 4.214-3.333h1.716a.666.666 0 1 0 0-1.334H7.617C3.174 19.333 2 22.822 2 24.667c0 .368.298.666.667.666h5.858c-.96 1.651-.983 3.3-.983 3.334 0 .368.298.666.667.666h5.124a.666.666 0 1 0 0-1.333H8.937c.23-1.435 1.306-4.667 6.322-4.667h5.483c.973 0 1.843.129 2.608.371-.006.105-.017.21-.017.317 0 1.584.704 3.005 1.812 3.979h-2.478a.666.666 0 1 0 0 1.333H28c.047 0 .09-.017.133-.026.176.017.354.026.534.026 2.94 0 5.333-2.383 5.333-5.312 0-2.929-2.393-5.312-5.333-5.312M18.04 27.334A1.333 1.333 0 1 0 17.959 30a1.333 1.333 0 0 0 .082-2.666M7.333 12.661c0-.546.257-1.058.723-1.439.583-.478 1.376-.66 2.178-.498a2.225 2.225 0 0 1 1.45.961c.207.32.316.68.316 1.046v1.363a2.664 2.664 0 0 0-2 2.573c0 .216.033.423.081.623-.747.11-1.478-.064-2.025-.512-.466-.381-.723-.893-.723-1.439v-2.678zm6-.66c0-2.444 1.791-3.976 4.661-4 2.882.024 4.673 1.556 4.673 4v2.666c0 .368.298.666.666.666.736 0 1.334.598 1.334 1.334 0 .734-.598 1.333-1.334 1.333h-1.429c.061-.33.096-.679.096-1.045V12a.666.666 0 0 0-.667-.667h-6.666A.666.666 0 0 0 14 12v4.955c0 .366.035.714.095 1.045h-1.428a1.335 1.335 0 0 1-1.334-1.333c0-.736.598-1.334 1.334-1.334a.666.666 0 0 0 .666-.666V12zM24 9.993c0-.546.257-1.057.723-1.439A2.52 2.52 0 0 1 26.33 8c.187 0 .379.019.57.057 1.024.206 1.767 1.05 1.767 2.007v2.247c0 1.198-.678 2.08-1.766 2.298-.801.161-1.595-.019-2.178-.498-.466-.38-.723-.892-.723-1.438V9.994zM17.993 20c-1.961 0-2.66-1.573-2.66-3.045v-4.288h5.334v4.288c0 1.472-.703 3.045-2.674 3.045zM7.211 17.81c.685.56 1.548.857 2.451.857.276 0 .555-.028.835-.084a.662.662 0 0 0 .231-.097 2.652 2.652 0 0 0 1.939.847h1.884c.663 1.248 1.884 2 3.442 2 1.564 0 2.789-.752 3.454-2h1.886c.984 0 1.834-.54 2.296-1.333h2.424c.904 0 1.69.149 2.34.443a.668.668 0 0 0 .882-.333.666.666 0 0 0-.333-.882c-.823-.373-1.795-.561-2.889-.561H26c0-.245-.043-.477-.105-.702.144.015.286.036.434.036.276 0 .555-.028.834-.084C28.86 15.575 30 14.127 30 12.31v-2.247c0-1.59-1.193-2.983-2.837-3.314-1.192-.24-2.392.041-3.286.773a3.34 3.34 0 0 0-.952 1.258c-1.038-1.309-2.767-2.096-4.931-2.114-2.905.024-5.037 1.437-5.741 3.653a3.598 3.598 0 0 0-1.756-.903c-1.194-.24-2.392.041-3.286.773C6.44 10.82 6 11.72 6 12.66v2.68c0 .94.441 1.84 1.21 2.47z"/>
</svg>
