<svg xmlns="http://www.w3.org/2000/svg" xmlns:xlink="http://www.w3.org/1999/xlink" width="30" height="30" viewBox="0 0 30 30">
    <defs>
        <path id="a" d="M14.954 22.108h.01c.407 0 .74-.328.744-.737l.07-5.592h5.592a.745.745 0 0 0 0-1.49h-5.573l.07-5.574a.746.746 0 0 0-1.491-.018l-.07 5.592H8.714a.745.745 0 0 0 0 1.49h5.573l-.07 5.574a.746.746 0 0 0 .737.755m9.975 1.521a1.125 1.125 0 1 1 .079 2.25 1.125 1.125 0 0 1-.08-2.25zm.375-19.075c4.663 4.566 5.744 11.755 2.63 17.483a.746.746 0 0 1-1.31-.712C29.422 16.18 28.45 9.721 24.261 5.62 19.07.538 10.71.625 5.627 5.815a13.09 13.09 0 0 0-3.76 9.358 13.087 13.087 0 0 0 3.957 9.275c4.238 4.15 10.766 4.956 15.876 1.96a.745.745 0 1 1 .754 1.286 14.596 14.596 0 0 1-7.393 2.004c-3.75 0-7.468-1.431-10.28-4.185A14.57 14.57 0 0 1 .376 15.188 14.571 14.571 0 0 1 4.562 4.772c5.658-5.777 14.963-5.874 20.742-.218z"/>
    </defs>
    <use fill="#33C" fill-rule="evenodd" xlink:href="#a"/>
</svg>
