<svg xmlns="http://www.w3.org/2000/svg" width="36" height="36" viewBox="0 0 36 36">
    <path fill="#FFF" fill-rule="evenodd" d="M20.586 14.644c0-1.001-.731-1.852-1.742-2.152v5.196c1.127.328 3.233 1.245 3.233 3.531 0 1.818-1.391 3.338-3.233 3.685v1.156a.745.745 0 0 1-1.491 0v-1.14c-1.897-.307-3.344-1.847-3.344-3.7a.745.745 0 1 1 1.49 0c0 1.037.786 1.912 1.854 2.181v-4.62c-.995-.463-3.344-1.801-3.344-4.137 0-1.853 1.447-3.394 3.344-3.7v-.918a.745.745 0 1 1 1.49 0v.934c1.843.347 3.234 1.867 3.234 3.684a.745.745 0 0 1-1.49 0zm0 6.575c0-1.09-.974-1.671-1.742-1.962v4.114c1.01-.3 1.742-1.15 1.742-2.152zM15.5 14.644c0 1.13 1.041 1.966 1.854 2.448v-4.63c-1.068.27-1.854 1.145-1.854 2.182zm13.68-6.147a14.61 14.61 0 0 1 1.898 16.28.745.745 0 1 1-1.325-.684 13.126 13.126 0 0 0-1.705-14.625 13.085 13.085 0 0 0-8.993-4.562A13.09 13.09 0 0 0 9.47 8.039a13.09 13.09 0 0 0-4.564 8.994 13.087 13.087 0 0 0 3.134 9.584c4 4.668 10.828 5.946 16.236 3.04a.745.745 0 1 1 .705 1.313 14.524 14.524 0 0 1-6.886 1.724c-4.192 0-8.335-1.78-11.187-5.107A14.569 14.569 0 0 1 3.42 16.92 14.569 14.569 0 0 1 8.5 6.908a14.57 14.57 0 0 1 10.67-3.489c3.905.3 7.46 2.104 10.01 5.078zm-.182 19.317a1.152 1.152 0 1 1 0 0z"/>
</svg>
