<svg xmlns="http://www.w3.org/2000/svg" width="36" height="36" viewBox="0 0 36 36">
    <path fill="#49D2CC" fill-rule="evenodd" d="M10.407 10.371a1.125 1.125 0 1 1 2.25.07 1.125 1.125 0 0 1-2.25-.07zM4.12 18.913a.746.746 0 0 1-.745-.745c0-.675 0-1.434.729-2.219a.73.73 0 0 1 .044-.043l3.98-3.618A.745.745 0 1 1 9.13 13.39l-3.954 3.595a1.07 1.07 0 0 0-.255.437H7.83a.745.745 0 0 1 0 1.49H4.12zm28.454-.823a.746.746 0 0 1-.746.746h-3.71a.745.745 0 0 1 0-1.491h2.909a1.075 1.075 0 0 0-.255-.436L18.045 5.405l-3.582 3.228a.745.745 0 0 1-.998-1.108l4.082-3.677a.746.746 0 0 1 .998 0l13.253 11.978.045.046c.73.785.73 1.546.73 2.218zM21.142 32.593a.746.746 0 0 1-.745-.746v-7.985c0-.218-.15-.395-.335-.395h-4.32c-.185 0-.336.177-.336.395v7.985a.746.746 0 0 1-.745.746H8.03c-1.016 0-1.842-.847-1.842-1.887v-9.992a.746.746 0 0 1 1.49 0v9.992c0 .219.158.396.352.396h5.886v-7.24c0-1.04.819-1.886 1.825-1.886h4.32c1.007 0 1.826.846 1.826 1.886v7.24h5.885c.195 0 .353-.177.353-.396v-9.992a.745.745 0 0 1 1.49 0v9.992c0 1.04-.827 1.887-1.843 1.887h-6.63z"/>
</svg>
