<svg xmlns="http://www.w3.org/2000/svg" width="36" height="36" viewBox="0 0 36 36">
    <path fill="#FFF" fill-rule="evenodd" d="M22 8.373V4.559l4.222 4.691H22.93c-.46 0-.93-.104-.93-.877zm6.25 3.377c.346 0 .625.28.625.625V31.75c0 .69-.58 1.25-1.291 1.25H8.917c-.712 0-1.292-.56-1.292-1.25v-9.375a.624.624 0 1 1 1.25 0v9.375h18.709l.041-4.175v-15.2c0-.345.28-.625.625-.625zm-20 2.5a.624.624 0 0 1-.625-.625V4.25c0-.689.574-1.25 1.28-1.25H22c.005 0 .01.003.014.003.051.001.098.017.147.03.03.008.063.01.092.023.03.014.056.038.086.057.04.027.08.05.113.085.004.004.009.005.012.009l5.625 6.25c.02.022.029.05.045.075.026.04.054.077.072.121.015.042.019.086.025.13.005.031.019.06.019.092 0 .006-.003.011-.003.017-.001.045-.016.087-.027.132-.009.035-.011.073-.026.105-.013.03-.036.054-.055.081-.027.041-.05.083-.086.117-.004.004-.005.01-.01.012-.03.027-.064.04-.096.06-.03.018-.058.042-.091.055a.627.627 0 0 1-.231.046H22.93c-1.607 0-2.18-1.099-2.18-2.127V4.25H8.905l-.03 9.375c0 .346-.28.625-.625.625zM9.5 18A1.25 1.25 0 1 1 7 18a1.25 1.25 0 0 1 2.5 0z"/>
</svg>
