<svg xmlns="http://www.w3.org/2000/svg" width="36" height="36" viewBox="0 0 36 36">
    <path fill="#FFF" fill-rule="evenodd" d="M12.945 9.25H9.653l4.222-4.69v3.813c0 .773-.47.877-.93.877m-5.3.533c.005-.045.009-.088.025-.13.017-.045.045-.082.071-.121.016-.024.024-.053.044-.075l5.625-6.25.014-.01c.033-.035.075-.059.116-.086.027-.019.051-.042.081-.055.033-.015.07-.017.105-.026.044-.011.088-.025.133-.026.005 0 .01-.004.016-.004H26.97c.706 0 1.28.56 1.28 1.25v9.375a.624.624 0 1 1-1.25 0V4.25H15.125v4.123c0 1.028-.573 2.127-2.18 2.127H8.25a.627.627 0 0 1-.23-.046c-.035-.014-.061-.037-.091-.056-.033-.02-.068-.032-.097-.059-.005-.003-.005-.008-.01-.012-.035-.034-.06-.076-.086-.117-.018-.028-.041-.051-.055-.081-.014-.033-.017-.07-.026-.105-.01-.045-.025-.086-.026-.133-.001-.005-.004-.01-.004-.016 0-.033.014-.061.02-.092zm19.98 6.967a1.25 1.25 0 1 1 0 2.5 1.25 1.25 0 0 1 0-2.5zM23.875 13a.624.624 0 1 1 0 1.25h-12.5a.624.624 0 1 1 0-1.25h12.5zm0 3.75a.624.624 0 1 1 0 1.25h-12.5a.624.624 0 1 1 0-1.25h12.5zm0 3.75a.624.624 0 1 1 0 1.25h-12.5a.624.624 0 1 1 0-1.25h12.5zm-5.625 3.75a.624.624 0 1 1 0 1.25h-6.875a.624.624 0 1 1 0-1.25h6.875zm0 3.75a.624.624 0 1 1 0 1.25h-6.875a.624.624 0 1 1 0-1.25h6.875zm4.376-3.126c-.345 0-.626.248-.626.551 0 .386.581.711.8.808.63.124 1.7.625 1.7 1.754 0 .782-.524 1.442-1.25 1.69v.198a.624.624 0 1 1-1.25 0v-.198c-.726-.249-1.25-.909-1.25-1.69a.625.625 0 1 1 1.25 0c0 .304.28.55.626.55.344 0 .624-.246.624-.55 0-.395-.715-.533-.722-.534a.568.568 0 0 1-.123-.032c-.614-.232-1.655-.913-1.655-1.996 0-.781.524-1.441 1.25-1.69v-.11a.624.624 0 1 1 1.25 0v.11c.726.248 1.25.908 1.25 1.69a.624.624 0 1 1-1.25 0c0-.303-.28-.55-.624-.55zm4.999-3.124c.346 0 .625.28.625.625v9.375c0 .69-.58 1.25-1.291 1.25H8.292C7.58 33 7 32.44 7 31.75V12.375a.624.624 0 1 1 1.25 0V31.75h18.709L27 22.375c0-.346.28-.625.625-.625z"/>
</svg>
