<svg xmlns="http://www.w3.org/2000/svg" width="228" height="123" viewBox="0 0 228 123">
    <path fill="#FFF" fill-rule="evenodd" d="M43.19 102.833c-13.313.044-23.383-10.583-23.425-24.72-.042-14.135 9.964-24.827 23.278-24.872 13.229-.043 23.235 10.583 23.276 24.719.042 14.136-9.901 24.83-23.128 24.873M23.439 39.654c6.057-4.346 13.188-6.564 21.19-6.59 22.678-.075 41.186 20.036 41.26 44.83.074 24.797-18.316 45.031-40.99 45.106-8.007.026-15.15-2.143-21.231-6.45l-3.796-2.687.02 7.218L0 121.097V5.844L19.547 0l.112 42.367 3.78-2.713zm104.138 29.05c12.135 4.495 27.237 10.086 27.237 27.624 0 15.45-13.087 26.666-31.12 26.666-19.93 0-33.322-11.866-33.322-29.526v-4.36h19.644v4.36c0 8.591 7.438 10.393 13.679 10.393 5.294 0 11.474-1.973 11.474-7.533 0-4.28-4.503-6.703-13.963-10.215l-1.265-.454c-12.244-4.386-27.48-9.844-27.48-28.334 0-12.967 10.13-26.095 29.494-26.095 17.98 0 30.539 11.623 30.539 28.267v4.092h-19.647v-4.092c0-7.643-5.923-9.247-10.892-9.247-4.818 0-9.966 1.858-9.966 7.075 0 4.784 4.13 7.124 13.382 10.559l2.206.82zM228 111.628a2.645 2.645 0 0 1-2.642 2.65 2.645 2.645 0 0 1-2.641-2.65 2.645 2.645 0 0 1 2.641-2.65 2.645 2.645 0 0 1 2.642 2.65zm-29.595-1.872c-1.05 0-1.902.842-1.902 1.882 0 1.039.851 1.881 1.902 1.881h21.199v7.532h-60.952c0-9.464 3.782-18.547 10.526-25.279l19.243-19.211c4.369-4.308 10.153-10.689 10.153-16.522 0-7.29-5.059-9.887-9.792-9.887-7.11 0-10.714 3.365-10.714 10v3.436h-19.416v-3.436c0-19.87 15.56-28.922 30.016-28.922 19.325 0 29.436 14.493 29.436 28.809 0 9.61-4.963 18.909-15.619 29.264l-13.149 12.825h30.268v7.628h-21.2z"/>
</svg>
